<svg width="32" height="32" viewBox="0 0 32 32" fill="none" xmlns="http://www.w3.org/2000/svg">
<path d="M26 18.096L16 28L6 18.096C5.34041 17.4542 4.82086 16.6827 4.47406 15.8302C4.12727 14.9777 3.96075 14.0626 3.98498 13.1426C4.00922 12.2226 4.22368 11.3175 4.61488 10.4845C5.00607 9.65139 5.56551 8.90834 6.25798 8.30211C6.95045 7.69588 7.76094 7.23959 8.63842 6.96198C9.51589 6.68437 10.4413 6.59145 11.3565 6.68907C12.2716 6.78669 13.1567 7.07274 13.9558 7.52921C14.755 7.98568 15.451 8.60267 16 9.34133C16.5514 8.60803 17.2482 7.99643 18.0468 7.54481C18.8454 7.09319 19.7287 6.81127 20.6412 6.7167C21.5538 6.62212 22.4761 6.71693 23.3504 6.99519C24.2246 7.27345 25.032 7.72917 25.7221 8.33382C26.4121 8.93847 26.9699 9.67905 27.3606 10.5092C27.7512 11.3393 27.9663 12.2412 27.9924 13.1583C28.0185 14.0754 27.855 14.988 27.5122 15.839C27.1693 16.69 26.6545 17.4611 26 18.104" stroke="#191847" stroke-width="2" stroke-linecap="round" stroke-linejoin="round"/>
</svg>
