<svg width="32" height="32" viewBox="0 0 32 32" fill="none" xmlns="http://www.w3.org/2000/svg">
<path d="M9.33333 26.6667H22.6667" stroke="#191847" stroke-width="2" stroke-linecap="round" stroke-linejoin="round"/>
<path d="M8 7.99999L16 6.66666L24 7.99999" stroke="#191847" stroke-width="2" stroke-linecap="round" stroke-linejoin="round"/>
<path d="M16 4V26.6667" stroke="#191847" stroke-width="2" stroke-linecap="round" stroke-linejoin="round"/>
<path d="M12 16L8 8L4 16C4 17.0609 4.42143 18.0783 5.17157 18.8284C5.92172 19.5786 6.93913 20 8 20C9.06087 20 10.0783 19.5786 10.8284 18.8284C11.5786 18.0783 12 17.0609 12 16Z" stroke="#191847" stroke-width="2" stroke-linecap="round" stroke-linejoin="round"/>
<path d="M28 16L24 8L20 16C20 17.0609 20.4214 18.0783 21.1716 18.8284C21.9217 19.5786 22.9391 20 24 20C25.0609 20 26.0783 19.5786 26.8284 18.8284C27.5786 18.0783 28 17.0609 28 16Z" stroke="#191847" stroke-width="2" stroke-linecap="round" stroke-linejoin="round"/>
</svg>
